<svg width="42" height="47" viewBox="0 0 42 47" fill="none" xmlns="http://www.w3.org/2000/svg">
<g clip-path="url(#clip0_753_105)">
<path d="M19.9649 0C24.979 0 29.0819 3.89736 30.4668 8.51277C31.9394 13.4215 30.0847 18.5839 25.8885 21.5389C27.1856 22.0804 28.3281 22.6872 29.4545 23.4237C31.2658 21.903 33.7073 21.5711 35.8611 22.5935C37.7479 23.489 39.0809 25.4308 39.0838 27.6291C39.0847 28.4961 38.3762 29.1461 37.5243 29.1157C36.7319 29.0872 36.0809 28.4574 36.0687 27.6189C36.0479 26.1001 34.7838 24.9398 33.2838 24.9407C31.797 24.9407 30.5054 26.0992 30.5092 27.6143L30.5168 30.7183L40.3809 30.7118C41.3488 30.7118 41.9998 31.3674 41.9979 32.3116L41.9753 45.6034C41.9743 46.304 41.3064 46.9595 40.5658 46.9623L26.4696 47.0009C25.8639 47.0028 25.4064 46.7701 24.9526 46.5532L21.0904 46.8685C19.4781 47 17.9121 46.9338 16.2894 46.8593C12.6347 46.692 8.4979 46.0457 5.16489 44.6013C2.2847 43.3509 -0.0822835 41.4054 0.00167879 38.0928C0.186584 30.767 4.74036 24.3321 11.6555 21.5481C7.3479 18.4378 5.59885 13.2578 7.13941 8.35096C8.57149 3.79163 12.6998 0.584742 17.6111 0H19.9639H19.9649ZM27.9536 11.9063C27.9536 6.96633 23.846 2.96232 18.779 2.96232C13.7121 2.96232 9.60451 6.96633 9.60451 11.9063C9.60451 16.8463 13.7121 20.8503 18.779 20.8503C23.846 20.8503 27.9536 16.8463 27.9536 11.9063ZM24.5819 32.2573C24.5819 31.3545 25.2271 30.7449 26.08 30.7164L27.4668 30.6989L27.4734 28.0805C27.4753 27.3165 27.5243 26.6067 27.7705 25.8785C25.9441 24.6447 23.9422 23.8135 21.7715 23.4062C19.7536 23.9229 17.7187 23.9064 15.7385 23.4062C8.47998 24.7752 3.18941 30.8939 2.99602 38.0937C2.96772 39.1446 3.37338 40.0318 4.24602 40.6763C5.06111 41.2785 5.92526 41.7566 6.8979 42.1272C12.1498 44.1103 18.997 44.3107 24.5875 43.612L24.5828 32.2592L24.5819 32.2573ZM38.9687 33.653H27.596V44.046H38.9687V33.653Z" fill="#00A5E4"/>
</g>
<defs>
<clipPath id="clip0_753_105">
<rect width="42" height="47" fill="white"/>
</clipPath>
</defs>
</svg>
