<svg width="19" height="19" viewBox="0 0 19 19" fill="none" xmlns="http://www.w3.org/2000/svg">
<g clip-path="url(#clip0_762_630)">
<path d="M16.5649 3.1796C16.3406 3.40452 16.0017 3.3776 15.7966 3.18281C15.5915 2.98801 15.5524 2.62852 15.7742 2.40681L16.918 1.263C17.132 1.04898 17.4717 1.07333 17.6767 1.26813C17.8818 1.46293 17.9209 1.82305 17.6992 2.04477L16.5656 3.18024L16.5649 3.1796Z" fill="white"/>
<path d="M14.5092 1.65519C14.5092 1.98455 14.2567 2.2146 13.9709 2.22357C13.6678 2.23318 13.3987 1.99417 13.3987 1.67121V0.553674C13.3987 0.243533 13.6505 0.00900465 13.9357 3.36245e-05C14.2388 -0.00957819 14.5079 0.231358 14.5079 0.553034L14.5092 1.65455V1.65519Z" fill="white"/>
<path d="M19 4.90412V8.52842C18.893 8.73539 18.7462 8.93724 18.4809 8.93852L17.3294 8.94429C17.0186 8.94557 16.7841 9.19484 16.7751 9.48319C16.7661 9.78629 17.0071 10.0535 17.3288 10.0548L18.4809 10.0605C18.7462 10.0618 18.8936 10.263 19 10.4706V14.0949C18.8923 14.2981 18.7475 14.5044 18.4797 14.505L15.6255 14.5102L15.6229 15.0305C15.6184 15.9692 14.8911 16.7241 13.9729 16.7343C13.0719 16.7446 12.2907 16.032 12.2837 15.1055L12.2792 14.5095L6.16266 14.5083C5.8429 14.5083 5.60516 14.259 5.60452 13.9553L5.60132 12.8377C5.60068 12.5167 5.33282 12.2751 5.02971 12.2841C4.74135 12.2924 4.49143 12.5276 4.49079 12.8377L4.48759 13.9546C4.48695 14.2583 4.24536 14.5076 3.93201 14.5076H0.556223C0.246712 14.5076 0.000640809 14.2609 0.000640809 13.952V10.6129C0.000640809 10.3002 0.249916 10.058 0.553019 10.0573L1.67059 10.0541C1.99228 10.0535 2.23258 9.78565 2.22361 9.48255C2.21464 9.17946 1.9801 8.94429 1.66995 8.94365L0.553019 8.94045C0.249275 8.94045 0 8.69823 0 8.38552V5.04638C0 4.73624 0.247352 4.49146 0.554941 4.49146L3.37386 4.48953L3.37578 3.93141C3.37963 2.99201 4.14604 2.25639 5.06368 2.26472C5.98132 2.27305 6.70863 3.00547 6.71504 3.93205L6.71889 4.49017L12.8354 4.49146C13.1552 4.49146 13.3929 4.74072 13.3936 5.04446L13.3968 6.16199C13.3974 6.48238 13.6659 6.72396 13.9684 6.71499C14.2708 6.70602 14.5066 6.47149 14.5073 6.16135L14.5105 5.04446C14.5111 4.74136 14.7527 4.49146 15.0667 4.49146L18.4784 4.49402C18.7469 4.49402 18.8917 4.70228 18.9994 4.90476L19 4.90412ZM6.72465 13.3971H8.94314L8.94442 10.6129C8.94442 10.2983 9.19177 10.0663 9.49744 10.0561L10.6144 10.0541C10.9361 10.0541 11.1764 9.78565 11.1674 9.48255C11.1584 9.17946 10.9239 8.94429 10.6137 8.94365L9.4968 8.94237C9.19177 8.93148 8.94442 8.70015 8.94378 8.38552L8.9425 5.60258L6.15946 5.60066C5.84482 5.60066 5.61285 5.35332 5.6026 5.0483L5.60067 3.93141C5.60067 3.61037 5.33153 3.3688 5.02907 3.37777C4.72661 3.38674 4.49079 3.62127 4.49015 3.93141L4.48887 5.0483C4.47798 5.35396 4.24664 5.60066 3.93201 5.6013L1.1118 5.60322V7.8274L1.67123 7.8306C2.60938 7.83381 3.34631 8.60083 3.33669 9.5178C3.32708 10.4348 2.59656 11.1653 1.66995 11.1691L1.11116 11.1723V13.3971H3.37322L3.37643 12.8006C3.4027 11.8753 4.16206 11.1627 5.06496 11.1717C5.96594 11.1806 6.70992 11.9131 6.7144 12.839L6.72401 13.3984L6.72465 13.3971ZM15.0834 13.3965H17.8876V11.171L17.2532 11.1665C16.3297 11.1185 15.6325 10.3463 15.6627 9.44346C15.6921 8.5579 16.4169 7.83509 17.3288 7.8306L17.8876 7.8274V5.60258H15.6255L15.6217 6.12354C15.6377 7.06294 14.8879 7.81843 13.9722 7.8274C13.0565 7.83637 12.2888 7.10139 12.2837 6.16135L12.2811 5.60258H10.0562V7.8274L10.6157 7.8306C11.5551 7.83316 12.292 8.60275 12.2818 9.51844C12.2715 10.4348 11.5179 11.1845 10.5778 11.1685L10.0562 11.1717V13.3965L12.8021 13.3939C13.1315 13.3939 13.3859 13.6208 13.3968 13.952L13.3987 15.067C13.3987 15.3881 13.6685 15.629 13.9703 15.62C14.2721 15.611 14.5086 15.3765 14.5092 15.0664L14.5105 13.9501C14.522 13.6432 14.7502 13.3958 15.084 13.3958L15.0834 13.3965Z" fill="white"/>
<path d="M5.18863 19.0002H4.90411C4.69777 18.8932 4.49527 18.7465 4.49463 18.4812L4.49207 17.3284C4.49143 17.0048 4.76185 16.7664 5.06431 16.7754C5.34947 16.7844 5.60195 17.0163 5.60131 17.329L5.5981 18.4812C5.59746 18.7465 5.39497 18.8938 5.18863 19.0002Z" fill="white"/>
<path d="M12.1241 2.39739C12.3484 2.62167 12.3215 2.96064 12.1273 3.1657C11.9331 3.37075 11.573 3.40984 11.3513 3.18812L10.2074 2.04432C9.99342 1.83029 10.0178 1.49004 10.2119 1.28563C10.4061 1.08121 10.7669 1.04148 10.9886 1.2632L12.1241 2.39739Z" fill="white"/>
<path d="M2.09161 17.7269C1.859 17.9596 1.50399 17.9243 1.30534 17.7129C1.10669 17.5014 1.09259 17.1566 1.31559 16.9343L2.44406 15.8104C2.65809 15.597 2.99708 15.62 3.20278 15.8155C3.40848 16.0109 3.44693 16.3704 3.22521 16.5921L2.09161 17.7269Z" fill="white"/>
<path d="M8.78356 16.9445C9.00785 17.1688 8.98093 17.5078 8.78677 17.7128C8.5926 17.9179 8.23247 17.957 8.01075 17.7352L6.8669 16.5914C6.65287 16.3774 6.67722 16.0372 6.87139 15.8327C7.06555 15.6283 7.42633 15.5886 7.64805 15.8103L8.78356 16.9445Z" fill="white"/>
</g>
<defs>
<clipPath id="clip0_762_630">
<rect width="19" height="19" fill="white"/>
</clipPath>
</defs>
</svg>
